<svg width="16" height="16" viewBox="0 0 16 16" fill="none" xmlns="http://www.w3.org/2000/svg">
<path d="M14.2933 7.36678L8.16667 13.4934C7.4161 14.244 6.39812 14.6657 5.33667 14.6657C4.27521 14.6657 3.25723 14.244 2.50667 13.4934C1.7561 12.7429 1.33444 11.7249 1.33444 10.6634C1.33444 9.60199 1.7561 8.584 2.50667 7.83344L8.63333 1.70678C9.13371 1.2064 9.81236 0.925293 10.52 0.925293C11.2276 0.925293 11.9063 1.2064 12.4067 1.70678C12.907 2.20715 13.1882 2.8858 13.1882 3.59344C13.1882 4.30108 12.907 4.97973 12.4067 5.48011L6.27333 11.6068C6.02315 11.857 5.68382 11.9975 5.33 11.9975C4.97618 11.9975 4.63685 11.857 4.38667 11.6068C4.13648 11.3566 3.99593 11.0173 3.99593 10.6634C3.99593 10.3096 4.13648 9.9703 4.38667 9.72011L10.0467 4.06678" stroke="#1B8409" stroke-width="2" stroke-linecap="round" stroke-linejoin="round"/>
</svg>
