<svg xmlns="http://www.w3.org/2000/svg" viewBox="0 0 707.7 124.1"  width="153" height="24">
	<path id="r" d="M655.2,105.9V41.7h10.7v10.7h3.2c1.6-4.1,3.9-7,7.1-8.9c3.1-1.9,6.6-2.8,10.3-2.8
		c4.7,0,8.5,1.6,11.4,4.8c2.9,3.2,4.4,7.7,4.4,13.4v9.6h-10.2v-8.1c0-2.9-0.8-5.2-2.5-6.9c-1.6-1.7-3.8-2.6-6.4-2.6
		c-2.9,0-6,1.1-9.2,3.3s-5.9,4.8-8.1,8v43.9H655.2z" fill="#303030"/>
	<path id="e" d="M619.2,42c-18.5,0-29.8,15.1-29.8,34.2c0,19.1,11.7,32,31.2,32c10.1,0,17-2.1,21.1-3.9l-2-8.3
		c-4.3,1.8-9.3,3.3-17.6,3.3c-11.5,0-21.5-6.4-21.8-22H645c0.1-1.2,0.4-3,0.4-5.4C645.4,60.2,639.9,42,619.2,42z M601.5,67
		c-0.1-6,5-16.7,16.7-16.7c13,0,16.1,11.4,17,16.7H601.5z" fill="#303030"/>
	<path id="n" d="M560.4,43.2c-10.3,0-17.5,5.8-20.6,11.7h-0.3l-0.6-10.3h-10c0.4,5.2,0.5,10.4,0.5,16.9v45.5h11.3V69.5
		c0-1.9,0.3-3.9,0.8-5.3c1.9-6.3,7.7-11.6,15.2-11.6c10.7,0,14.4,8.4,14.4,18.4v35.9h11.3V69.7C582.4,48.3,569,43.2,560.4,43.2z" fill="#303030"/>
	<g id="i">
		<rect x="506.2" y="43.6" width="11.3" height="62.3" fill="#303030"/>
		<path d="M511.9,19c-4.1,0-7.1,3.1-7.1,7.1c0,3.9,2.8,7,6.8,7c4.5,0,7.3-3.1,7.2-7C518.8,22.1,516.1,19,511.9,19z" fill="#303030"/>
	</g>
	<path id="m" d="M476.1,19.1l-15.5,42c-3.9,10.9-7,20.5-9.1,29.2h-0.4c-2.2-9-5.2-18.5-8.8-29.2l-14.8-42h-14.3
		l-6.1,86.8h10.7l2.3-37.2c0.8-13,1.4-27.6,1.7-38.4h0.3c2.4,10.3,5.9,21.5,10,33.7l14,41.3h8.5L470,63.3c4.4-12,8-22.8,10.9-33h0.4
		c-0.1,10.8,0.6,25.4,1.3,37.5l2.2,38.1h10.9l-5.4-86.8H476.1z" fill="#303030"/>
	<path id="t" d="M386,105.8c-7.1,0-12.4-1.9-15.9-5.6c-3.6-3.7-5.3-9.2-5.3-16.5V50.3h-12.8v-9.6h12.8V19.3h10.7v21.4
		h23.5v9.6h-23.5V84c0,4.2,1,7.3,3.1,9.3c2.1,2,4.8,2.9,8.1,2.9c1.6,0,3.3-0.2,5.2-0.5c1.9-0.4,3.9-0.9,5.9-1.6l2.1,9.3
		c-2.4,0.8-4.8,1.5-7.1,1.9C390.5,105.7,388.2,105.8,386,105.8z" fill="#303030"/>
	<path id="l" d="M343.7,105.4c-7.2,0-12.9-2.4-17-7.3c-4.1-4.9-6.2-10.6-6.2-17.2V19.3h10.7V81c0,3.8,1.1,7.1,3.2,10.1
		c2.1,2.9,5.3,4.4,9.6,4.4c1.1,0,2.3-0.2,3.7-0.5c1.4-0.4,2.7-0.8,3.7-1.3l2.1,9.3c-1.4,0.7-2.9,1.3-4.6,1.8
		C347.3,105.2,345.5,105.4,343.7,105.4z" fill="#303030"/>
	<path id="a" d="M269.8,106c-5.7,0-10.8-1.4-15.2-4.3c-4.5-2.9-6.7-7.5-6.7-14c0-5.6,1.7-10.1,5.1-13.3s8-4.8,13.8-4.8
		h23.9v-9.2c0-3.4-1.2-6.2-3.7-8.4c-2.5-2.2-6.2-3.3-11.2-3.3c-5,0-8.8,0.8-11.4,2.4c-2.6,1.6-4.6,4.7-6,9.5l-9.1-2.6
		c1.1-5.8,3.8-10.4,8-13.6s10.3-4.8,18.3-4.8c7.3,0,13.5,1.6,18.4,4.8s7.4,8.1,7.4,14.7v28.7c0,3.9,1.1,6.3,3.2,7.2
		c2.1,1,5.3,1.1,9.6,0.4v9.7c-4.4,0.6-8.6,0.3-12.5-0.9c-3.9-1.2-6-4.6-6.4-10.1h-2.1c-2,3.4-5.1,6.2-9.4,8.4
		C279.6,104.8,274.9,106,269.8,106z M271.2,96.9c3.9,0,7.6-0.7,10.9-2c3.4-1.3,6.2-3.6,8.6-6.9V77.6h-22.5c-3.1,0-5.5,0.7-7.4,2.1
		c-1.9,1.4-2.8,3.9-2.8,7.4c0,3.1,1.1,5.5,3.2,7.2C263.3,96,266.6,96.9,271.2,96.9z" fill="#303030"/>
	<path id="s" d="M205.4,105.5c-8.3,0-15.3-1.5-21-4.5c-5.7-3-10.1-8.7-13.2-17.1l10-4c2.2,6.1,5.2,10.2,8.8,12.5
		c3.7,2.3,9,3.4,16.1,3.4c6.2,0,11.2-1.1,15.1-3.4c3.9-2.3,5.8-6.1,5.8-11.3c0-4.8-1.7-8.3-5.1-10.2c-3.4-2-9.5-3.6-18.2-5
		c-11-1.6-18.7-4.2-23.1-7.7c-4.4-3.5-6.6-8.8-6.6-15.8c0-7.3,2.6-13,7.9-17.2c5.3-4.2,12.5-6.3,21.6-6.3c8.3,0,15.1,1.4,20.4,4.2
		c5.3,2.8,9.4,7.9,12.1,15.2l-10,4c-1.9-5.1-4.7-8.7-8.7-10.8c-3.9-2-8.8-3-14.6-3c-5.4,0-9.8,1-13.1,2.9c-3.3,1.9-5,5.3-5,10.1
		c0,4.9,1.8,8.2,5.3,10.1c3.6,1.9,10,3.5,19.3,4.8c10.4,1.6,17.7,4.1,21.9,7.5c4.2,3.4,6.3,8.6,6.3,15.5c0,8.1-2.9,14.5-8.6,19.2
		C223.3,103.2,215.4,105.5,205.4,105.5z" fill="#303030"/>
	<path id="b2" d="M124.7,118c3.2-1.1,5.7-2.5,7.3-4.3c1.7-1.8,2.8-4.3,3.4-7.3c0.6-3.1,0.9-8.5,0.9-16.1
		c0-4.7,0.1-8,0.4-9.8c0.4-2.5,1-4.7,2-6.3c0.9-1.7,2-2.9,3.3-3.6c1.3-0.7,3.2-1.2,5.8-1.3h0V54.9c-3.2-0.2-5.6-1-7.2-2.4
		c-1.6-1.4-2.7-3.6-3.5-6.8c-0.5-2.2-0.8-6.9-0.8-14.2c0-6.3-0.3-10.8-0.9-13.7c-0.6-2.9-1.8-5.4-3.5-7.4c-1.7-2-3.9-3.4-6.4-4.2
		c-2.6-0.8-6.2-1.3-10.9-1.3h-2.8v14.2c4,0,6.5,0.3,7.7,0.8c1.2,0.6,2,1.3,2.4,2.3c0.4,1,0.7,3,0.7,5.9c0.2,9.4,0.5,15.5,0.8,18.3
		c0.6,4,1.7,7.3,3.4,9.9c1.2,1.8,3.1,3.6,5.7,5.6c-2,1.2-3.6,2.8-4.9,4.5c-1.3,1.7-2.3,3.8-3.1,6.3c-0.8,2.5-1.3,5.8-1.4,9.8
		c-0.3,6.8-0.5,11.4-0.5,13.9c0,2.4-0.3,4.1-0.8,5.1c-0.5,1-1.4,1.8-2.6,2.3c-1.2,0.5-3.6,0.7-7.4,0.7v14.3h2.8
		C119.1,119.1,122.5,118.7,124.7,118L124.7,118z M124.7,118" fill="#76D750"/>
	<path id="S" d="M105,79.7c0,4.9-0.8,9.2-2.4,12.8c-1.6,3.6-3.9,6.6-6.8,9c-2.9,2.4-6.4,4.1-10.4,5.3
		c-4,1.1-8.4,1.7-13.2,1.7c-4.2,0-8.3-0.3-12.3-0.8c-3.9-0.6-7.9-1.5-11.7-2.8V88.2c1.9,0.7,3.9,1.4,5.9,2.1
		c2.1,0.6,4.1,1.2,6.2,1.7c2.1,0.5,4.1,0.9,6.2,1.1c2.1,0.3,4,0.4,6,0.4c2.9,0,5.3-0.3,7.3-0.8c2-0.6,3.7-1.3,4.9-2.3
		c1.3-1,2.2-2.1,2.8-3.4c0.6-1.3,0.9-2.8,0.9-4.4c0-2.2-0.6-4-1.7-5.5c-1.1-1.5-2.6-2.8-4.5-4c-1.9-1.1-4-2.2-6.3-3.1
		c-2.4-0.9-4.8-1.9-7.2-3c-2.4-1.1-4.9-2.2-7.2-3.6c-2.4-1.3-4.5-3-6.3-5c-1.9-2-3.3-4.3-4.5-7.1c-1.1-2.7-1.7-6-1.7-9.9
		c0-3.5,0.6-6.9,1.7-10c1.2-3.2,3-5.9,5.4-8.3c2.5-2.4,5.6-4.2,9.5-5.6c3.9-1.4,8.5-2.1,14-2.1c1.6,0,3.3,0.1,5,0.2
		c1.7,0.2,3.5,0.4,5.2,0.6c1.7,0.3,3.4,0.6,4.9,0.9c1.6,0.3,3,0.7,4.3,1.1v15.5c-1.3-0.6-2.8-1.1-4.3-1.5c-1.6-0.5-3.2-0.9-4.8-1.2
		c-1.7-0.3-3.3-0.6-5-0.8c-1.7-0.2-3.3-0.3-4.8-0.3c-2.7,0-4.9,0.2-6.8,0.7c-1.9,0.5-3.4,1.1-4.6,2c-1.2,0.8-2.1,1.9-2.6,3.1
		c-0.5,1.2-0.8,2.6-0.8,4.1c0,1.9,0.6,3.5,1.7,4.8c1.1,1.4,2.6,2.6,4.5,3.6c1.9,1.1,4,2.1,6.4,3c2.4,0.9,4.8,1.9,7.3,3
		c2.5,1.1,4.9,2.3,7.3,3.7c2.4,1.4,4.5,3,6.4,5c1.9,2,3.4,4.3,4.5,7C104.4,72.9,105,76.1,105,79.7z" fill="#303030"/>
	<path id="b1" d="M16.1,78.2c0.5,2.2,0.8,6.9,0.8,14.1c0,6.3,0.3,10.9,0.9,13.8c0.6,2.9,1.8,5.4,3.5,7.3
		c1.7,2,3.9,3.4,6.4,4.2c2.6,0.9,6.2,1.3,11,1.3h2.8v-14.3c-3.8,0-6.2-0.2-7.4-0.8c-1.1-0.6-2-1.3-2.6-2.4c-0.5-1-0.8-2.8-0.8-5.4
		c0-1.8-0.1-6-0.4-12.6c-0.2-4.3-0.7-7.8-1.3-10.4c-0.7-2.6-1.7-4.8-3.1-6.6c-1.3-1.8-3-3.3-5.1-4.7c2.3-1.7,4.1-3.4,5.3-5
		c1.1-1.6,2.1-3.5,2.8-6c0.7-2.5,1.2-5.6,1.4-9.5c0.3-6.9,0.5-11.6,0.5-14.2c0-2.4,0.3-4.1,0.8-5.1c0.5-1,1.3-1.8,2.5-2.3
		c1.1-0.5,3.6-0.8,7.5-0.8V5h-2.8c-4.6,0-8,0.4-10.2,1.1c-3.2,1.1-5.6,2.5-7.2,4.3c-1.7,1.9-2.8,4.3-3.4,7.3c-0.6,3-0.9,8.3-0.9,16
		c0,4.7-0.1,8-0.4,9.9c-0.4,2.5-1,4.6-1.9,6.3c-0.9,1.7-2.1,2.8-3.4,3.6c-1.3,0.7-3.2,1.1-5.8,1.3v14.2c3.2,0.2,5.6,1,7.2,2.4
		C14.1,72.8,15.3,75,16.1,78.2L16.1,78.2z M16.1,78.2" fill="#76D750"/>
</svg>
