<svg width="11" height="12" viewBox="0 0 11 12" fill="none" xmlns="http://www.w3.org/2000/svg">
<path d="M1.6543 3.98633C1.6543 4.76107 1.73861 5.34212 1.90723 5.72949C2.07585 6.11686 2.34928 6.31055 2.72754 6.31055C3.47493 6.31055 3.84863 5.53581 3.84863 3.98633C3.84863 2.44596 3.47493 1.67578 2.72754 1.67578C2.34928 1.67578 2.07585 1.86719 1.90723 2.25C1.73861 2.63281 1.6543 3.21159 1.6543 3.98633ZM4.78516 3.98633C4.78516 5.02539 4.6097 5.81152 4.25879 6.34473C3.91243 6.87337 3.40202 7.1377 2.72754 7.1377C2.08952 7.1377 1.59277 6.86654 1.2373 6.32422C0.886393 5.7819 0.710938 5.0026 0.710938 3.98633C0.710938 2.95182 0.879557 2.17253 1.2168 1.64844C1.55859 1.12435 2.06217 0.862305 2.72754 0.862305C3.38835 0.862305 3.89648 1.13346 4.25195 1.67578C4.60742 2.2181 4.78516 2.98828 4.78516 3.98633ZM7.66992 7.99219C7.66992 8.77148 7.75423 9.35482 7.92285 9.74219C8.09147 10.125 8.36719 10.3164 8.75 10.3164C9.13281 10.3164 9.41536 10.1273 9.59766 9.74902C9.77995 9.36621 9.87109 8.7806 9.87109 7.99219C9.87109 7.21289 9.77995 6.63639 9.59766 6.2627C9.41536 5.88444 9.13281 5.69531 8.75 5.69531C8.36719 5.69531 8.09147 5.88444 7.92285 6.2627C7.75423 6.63639 7.66992 7.21289 7.66992 7.99219ZM10.8076 7.99219C10.8076 9.02669 10.6322 9.81055 10.2812 10.3438C9.9349 10.8724 9.42448 11.1367 8.75 11.1367C8.10286 11.1367 7.60384 10.8656 7.25293 10.3232C6.90658 9.78092 6.7334 9.00391 6.7334 7.99219C6.7334 6.95768 6.90202 6.17839 7.23926 5.6543C7.58105 5.13021 8.08464 4.86816 8.75 4.86816C9.39714 4.86816 9.90072 5.13704 10.2607 5.6748C10.6253 6.20801 10.8076 6.98047 10.8076 7.99219ZM9.04395 1.00586L3.5 11H2.49512L8.03906 1.00586H9.04395Z" fill="#303030"/>
</svg>
